<svg width="409" height="93" viewBox="0 0 409 93" fill="none" xmlns="http://www.w3.org/2000/svg">
<path d="M12.35 48.51C18.28 48.33 24.95 47.29 26.52 43.09C26.68 41.27 24.5 39.78 22.26 38.76C19.44 37.87 15.84 38.05 13.37 38.72C12.26 38.3 11.06 37.52 10.39 36.79C15.08 34.5 20.79 32.57 27.69 34.37C30.58 34.99 33.13 36.28 35.69 37.57C38.51 36.08 40.33 33.88 41.58 31.73C43.2 28.64 40.89 25.13 37.03 22.69C33.92 20.29 29.97 19.11 25.66 19.49L22.33 19.89L20.62 17.8C25.57 15.05 33.77 14.85 40.35 16.96C44.88 18.45 49.28 21.31 52.57 24.05C54.44 22.83 56.35 21.45 58.41 20.23C52.21 15.28 44.39 12.3 35.86 12.3C16.06 12.28 0 28.34 0 48.13V48.24C4.18 48.4 8.42 48.66 12.35 48.51Z" fill="#EE7F00"/>
<path d="M1.93 51.6C1.35 51.44 0.749999 51.31 0.129999 51.2C1.68 69.57 17.08 83.99 35.85 83.99C39 83.99 42.07 83.57 45 82.81C36.56 70.77 21.45 57.15 1.93 51.6Z" fill="#EE7F00"/>
<path d="M67.17 65.59C57.37 62.26 46.49 60.39 35.67 59.21C35.67 59.21 44.02 65.23 57.57 76.65C61.48 73.67 64.75 69.9 67.17 65.59Z" fill="#EE7F00"/>
<path d="M46.18 55.4C57.6 54 67.59 46.94 71.39 43.45C70.75 38.56 69.12 33.99 66.73 29.92C47.38 48.93 31.01 51.71 19.48 52.69C19.48 52.69 33.52 56.95 46.18 55.4Z" fill="#EE7F00"/>
<path d="M83.63 29.92H89.9V44.13H106.14V29.92H112.4V65.64H106.14V49.53H89.9V65.64H83.63V29.92Z" fill="black"/>
<path d="M140.24 59.88C140.24 60.59 140.33 61.08 140.51 61.39C140.69 61.68 141.04 61.83 141.58 61.83H142.18C142.42 61.83 142.69 61.81 142.98 61.74V65.69C142.78 65.76 142.51 65.82 142.2 65.91C141.89 66 141.56 66.07 141.22 66.13C140.89 66.2 140.55 66.24 140.22 66.29C139.89 66.33 139.6 66.33 139.38 66.33C138.2 66.33 137.25 66.09 136.47 65.62C135.69 65.15 135.2 64.33 134.96 63.18C133.83 64.29 132.43 65.09 130.78 65.58C129.14 66.07 127.54 66.34 126 66.34C124.82 66.34 123.71 66.18 122.65 65.87C121.58 65.56 120.65 65.09 119.83 64.47C119.01 63.85 118.36 63.07 117.88 62.12C117.39 61.17 117.15 60.05 117.15 58.79C117.15 57.19 117.44 55.88 118.02 54.88C118.6 53.88 119.38 53.1 120.33 52.53C121.29 51.97 122.35 51.55 123.53 51.31C124.71 51.07 125.91 50.87 127.11 50.73C128.13 50.53 129.13 50.4 130.06 50.31C130.99 50.22 131.81 50.09 132.53 49.89C133.24 49.69 133.82 49.38 134.24 48.96C134.66 48.54 134.86 47.92 134.86 47.09C134.86 46.36 134.68 45.76 134.33 45.29C133.97 44.82 133.55 44.47 133.02 44.22C132.51 43.98 131.93 43.8 131.29 43.71C130.65 43.62 130.05 43.58 129.49 43.58C127.89 43.58 126.58 43.91 125.54 44.58C124.5 45.25 123.92 46.29 123.79 47.69H118.08C118.19 46.02 118.59 44.65 119.28 43.54C119.99 42.45 120.88 41.56 121.95 40.9C123.04 40.23 124.26 39.77 125.62 39.5C126.97 39.23 128.37 39.1 129.82 39.1C131.09 39.1 132.33 39.23 133.57 39.5C134.79 39.77 135.9 40.21 136.9 40.81C137.88 41.41 138.68 42.19 139.28 43.14C139.88 44.09 140.19 45.25 140.19 46.61V59.89H140.28L140.24 59.88ZM134.53 52.68C133.66 53.26 132.6 53.59 131.33 53.7C130.06 53.81 128.8 53.99 127.53 54.23C126.93 54.34 126.35 54.47 125.78 54.65C125.2 54.83 124.71 55.09 124.27 55.41C123.83 55.72 123.49 56.14 123.25 56.65C123.01 57.16 122.87 57.78 122.87 58.52C122.87 59.16 123.05 59.7 123.43 60.12C123.79 60.56 124.23 60.9 124.76 61.14C125.27 61.38 125.85 61.56 126.47 61.67C127.09 61.78 127.65 61.83 128.14 61.83C128.76 61.83 129.45 61.74 130.18 61.59C130.91 61.43 131.6 61.15 132.25 60.75C132.89 60.35 133.45 59.84 133.87 59.22C134.29 58.6 134.51 57.84 134.51 56.95V52.69H134.53V52.68Z" fill="black"/>
<path d="M145.88 39.78H151.28V43.58L151.37 43.67C152.24 42.25 153.37 41.12 154.77 40.29C156.17 39.47 157.72 39.07 159.41 39.07C162.25 39.07 164.47 39.8 166.12 41.27C167.74 42.74 168.56 44.94 168.56 47.87V65.62H162.85V49.38C162.78 47.34 162.34 45.87 161.54 44.96C160.74 44.05 159.5 43.58 157.79 43.58C156.81 43.58 155.95 43.76 155.19 44.11C154.41 44.47 153.77 44.95 153.24 45.55C152.71 46.17 152.28 46.88 152 47.73C151.71 48.57 151.56 49.44 151.56 50.37V65.63H145.85V39.77H145.89L145.88 39.78Z" fill="black"/>
<path d="M173.18 39.78H194.17V43.78L179.38 61.13H194.93V65.64H172.18V61.64L186.48 44.27H173.18V39.78Z" fill="black"/>
<path d="M203.03 54.17C203.03 55.17 203.16 56.15 203.45 57.08C203.74 58.01 204.16 58.83 204.72 59.52C205.3 60.23 206.01 60.79 206.87 61.19C207.74 61.61 208.78 61.81 209.98 61.81C211.65 61.81 212.98 61.45 214 60.74C215.02 60.03 215.78 58.94 216.27 57.52H221.67C221.36 58.92 220.85 60.16 220.12 61.27C219.39 62.36 218.5 63.29 217.48 64.05C216.44 64.81 215.28 65.36 214.01 65.76C212.72 66.14 211.39 66.34 209.99 66.34C207.95 66.34 206.15 66.01 204.59 65.34C203.01 64.67 201.7 63.74 200.61 62.54C199.52 61.34 198.7 59.9 198.17 58.23C197.61 56.56 197.35 54.72 197.35 52.72C197.35 50.88 197.64 49.14 198.22 47.5C198.8 45.86 199.64 44.39 200.73 43.15C201.82 41.91 203.13 40.91 204.66 40.17C206.19 39.44 207.93 39.06 209.86 39.06C211.9 39.06 213.73 39.48 215.32 40.33C216.94 41.17 218.27 42.31 219.34 43.71C220.41 45.11 221.18 46.71 221.67 48.53C222.16 50.35 222.27 52.22 222.05 54.15H203.04V54.17H203.03ZM216.31 50.42C216.24 49.53 216.04 48.64 215.73 47.82C215.42 47 214.97 46.26 214.42 45.64C213.86 45.02 213.2 44.53 212.42 44.13C211.64 43.75 210.75 43.55 209.8 43.55C208.85 43.55 207.89 43.73 207.07 44.08C206.25 44.44 205.56 44.92 204.96 45.52C204.38 46.14 203.92 46.85 203.56 47.7C203.2 48.55 203.03 49.43 202.98 50.41H216.31V50.42Z" fill="black"/>
<path d="M316.91 3.73999H324.96C326.45 3.73999 327.73 3.98999 328.82 4.49999C329.91 5.00999 330.8 5.69999 331.49 6.57999C332.18 7.45999 332.69 8.48999 333.03 9.66999C333.37 10.85 333.53 12.11 333.53 13.45C333.53 14.79 333.36 16.05 333.03 17.23C332.69 18.41 332.18 19.44 331.49 20.32C330.8 21.2 329.91 21.89 328.82 22.4C327.73 22.91 326.44 23.16 324.96 23.16H316.91V3.73999ZM320.31 20.39H323.66C324.98 20.39 326.07 20.21 326.91 19.86C327.75 19.51 328.41 19.02 328.9 18.39C329.38 17.76 329.71 17.03 329.88 16.19C330.05 15.35 330.14 14.44 330.14 13.46C330.14 12.48 330.05 11.57 329.88 10.73C329.71 9.88999 329.38 9.14999 328.9 8.52999C328.42 7.89999 327.76 7.40999 326.91 7.05999C326.07 6.70999 324.98 6.52999 323.66 6.52999H320.31V20.4V20.39Z" fill="black"/>
<path d="M336.19 3.73999H339.29V6.67999H336.19V3.73999ZM336.19 9.09999H339.29V23.16H336.19V9.09999Z" fill="black"/>
<path d="M355.67 22.43C355.67 24.55 355.08 26.13 353.89 27.18C352.7 28.22 350.99 28.74 348.76 28.74C348.05 28.74 347.34 28.67 346.63 28.52C345.91 28.37 345.26 28.13 344.67 27.79C344.08 27.45 343.59 26.99 343.19 26.43C342.79 25.87 342.55 25.18 342.48 24.36H345.58C345.67 24.8 345.83 25.15 346.04 25.42C346.25 25.69 346.52 25.91 346.82 26.06C347.12 26.21 347.45 26.31 347.81 26.36C348.17 26.41 348.55 26.43 348.95 26.43C350.2 26.43 351.12 26.12 351.7 25.5C352.28 24.88 352.57 23.99 352.57 22.83V20.68H352.52C352.08 21.46 351.49 22.07 350.74 22.5C349.99 22.94 349.18 23.15 348.31 23.15C347.19 23.15 346.23 22.96 345.44 22.57C344.65 22.18 344 21.65 343.48 20.97C342.96 20.29 342.59 19.51 342.35 18.62C342.11 17.73 342 16.78 342 15.76C342 14.82 342.14 13.92 342.44 13.07C342.73 12.22 343.15 11.47 343.69 10.83C344.23 10.19 344.9 9.66997 345.69 9.28997C346.48 8.90997 347.37 8.71997 348.37 8.71997C349.26 8.71997 350.07 8.90997 350.82 9.27997C351.56 9.64997 352.13 10.24 352.53 11.03H352.58V9.09997H355.68V22.43H355.67ZM348.79 20.72C349.48 20.72 350.06 20.58 350.54 20.3C351.02 20.02 351.41 19.65 351.71 19.18C352.01 18.72 352.23 18.19 352.36 17.6C352.5 17.01 352.56 16.42 352.56 15.82C352.56 15.22 352.49 14.64 352.34 14.08C352.2 13.52 351.97 13.02 351.67 12.58C351.37 12.14 350.98 11.8 350.5 11.55C350.02 11.3 349.44 11.17 348.77 11.17C348.1 11.17 347.5 11.32 347.03 11.61C346.56 11.9 346.18 12.28 345.89 12.74C345.6 13.2 345.39 13.73 345.27 14.32C345.14 14.91 345.08 15.49 345.08 16.07C345.08 16.65 345.15 17.22 345.3 17.77C345.44 18.32 345.67 18.82 345.97 19.25C346.27 19.69 346.65 20.04 347.11 20.31C347.57 20.58 348.13 20.72 348.78 20.72H348.79Z" fill="black"/>
<path d="M358.88 3.73999H361.98V6.67999H358.88V3.73999ZM358.88 9.09999H361.98V23.16H358.88V9.09999Z" fill="black"/>
<path d="M363.94 9.10001H366.28V4.88H369.38V9.10001H372.18V11.41H369.38V18.92C369.38 19.25 369.39 19.53 369.42 19.76C369.45 20 369.51 20.2 369.61 20.36C369.71 20.52 369.86 20.65 370.06 20.73C370.26 20.81 370.53 20.85 370.88 20.85C371.1 20.85 371.32 20.85 371.53 20.84C371.75 20.84 371.97 20.8 372.18 20.74V23.13C371.84 23.17 371.5 23.2 371.17 23.24C370.84 23.28 370.51 23.29 370.16 23.29C369.34 23.29 368.69 23.21 368.19 23.06C367.69 22.91 367.3 22.68 367.02 22.38C366.74 22.08 366.55 21.7 366.45 21.25C366.35 20.8 366.29 20.28 366.27 19.7V11.4H363.93V9.09L363.94 9.10001Z" fill="black"/>
<path d="M386.19 20.04C386.19 20.42 386.24 20.69 386.34 20.86C386.44 21.02 386.63 21.11 386.92 21.11H387.25C387.38 21.11 387.52 21.09 387.69 21.06V23.21C387.58 23.25 387.44 23.29 387.27 23.33C387.1 23.38 386.92 23.42 386.74 23.45C386.56 23.49 386.38 23.51 386.2 23.53C386.02 23.55 385.87 23.56 385.74 23.56C385.11 23.56 384.58 23.43 384.16 23.18C383.74 22.93 383.47 22.48 383.34 21.85C382.72 22.45 381.97 22.88 381.07 23.16C380.17 23.43 379.31 23.57 378.47 23.57C377.84 23.57 377.23 23.48 376.65 23.31C376.07 23.14 375.56 22.88 375.11 22.55C374.66 22.21 374.31 21.79 374.05 21.27C373.79 20.75 373.66 20.15 373.66 19.46C373.66 18.59 373.82 17.88 374.14 17.34C374.46 16.8 374.87 16.37 375.39 16.06C375.91 15.75 376.49 15.53 377.13 15.39C377.77 15.25 378.42 15.15 379.08 15.08C379.64 14.97 380.18 14.89 380.69 14.85C381.2 14.8 381.65 14.73 382.04 14.62C382.43 14.51 382.74 14.34 382.97 14.12C383.2 13.89 383.31 13.55 383.31 13.1C383.31 12.7 383.21 12.37 383.02 12.12C382.83 11.87 382.59 11.67 382.31 11.54C382.03 11.4 381.72 11.31 381.37 11.27C381.03 11.23 380.7 11.2 380.39 11.2C379.52 11.2 378.8 11.38 378.24 11.74C377.68 12.1 377.36 12.67 377.29 13.43H374.19C374.24 12.52 374.46 11.77 374.84 11.17C375.22 10.57 375.71 10.09 376.3 9.73C376.89 9.37 377.55 9.11 378.3 8.97C379.04 8.82 379.8 8.75 380.59 8.75C381.28 8.75 381.96 8.82 382.63 8.97C383.3 9.12 383.9 9.35 384.44 9.68C384.97 10.01 385.41 10.43 385.73 10.95C386.06 11.47 386.22 12.1 386.22 12.84V20.08L386.19 20.04ZM383.09 16.12C382.62 16.43 382.04 16.61 381.35 16.68C380.66 16.74 379.97 16.84 379.28 16.97C378.95 17.02 378.64 17.1 378.33 17.2C378.02 17.3 377.75 17.44 377.51 17.61C377.27 17.78 377.09 18.01 376.95 18.29C376.81 18.57 376.75 18.91 376.75 19.31C376.75 19.65 376.85 19.94 377.05 20.18C377.25 20.42 377.49 20.6 377.77 20.74C378.05 20.88 378.36 20.97 378.69 21.03C379.02 21.08 379.33 21.11 379.6 21.11C379.94 21.11 380.32 21.06 380.72 20.97C381.12 20.88 381.5 20.73 381.85 20.51C382.2 20.29 382.5 20.02 382.73 19.68C382.97 19.34 383.08 18.93 383.08 18.44V16.13L383.09 16.12Z" fill="black"/>
<path d="M389.62 3.73999H392.72V23.16H389.62V3.73999Z" fill="black"/>
<path d="M319.14 49.34C319.14 50.08 319.27 50.72 319.52 51.24C319.77 51.77 320.13 52.2 320.58 52.53C321.03 52.87 321.55 53.11 322.14 53.26C322.73 53.41 323.37 53.49 324.06 53.49C324.8 53.49 325.44 53.4 325.96 53.23C326.49 53.06 326.91 52.84 327.24 52.56C327.57 52.29 327.8 51.98 327.95 51.62C328.09 51.27 328.17 50.91 328.17 50.55C328.17 49.81 328 49.26 327.67 48.9C327.33 48.55 326.97 48.3 326.57 48.15C325.88 47.9 325.08 47.66 324.16 47.43C323.24 47.2 322.12 46.91 320.77 46.55C319.94 46.33 319.24 46.05 318.69 45.69C318.14 45.34 317.7 44.94 317.37 44.51C317.04 44.07 316.81 43.61 316.68 43.12C316.54 42.63 316.48 42.13 316.48 41.62C316.48 40.64 316.68 39.79 317.09 39.08C317.5 38.36 318.04 37.77 318.71 37.3C319.38 36.83 320.14 36.48 321 36.25C321.85 36.02 322.71 35.91 323.58 35.91C324.6 35.91 325.55 36.04 326.45 36.3C327.35 36.56 328.14 36.96 328.82 37.48C329.5 38.01 330.04 38.65 330.44 39.42C330.84 40.19 331.04 41.08 331.04 42.1H327.64C327.55 40.85 327.12 39.96 326.36 39.45C325.6 38.93 324.63 38.67 323.45 38.67C323.05 38.67 322.64 38.71 322.23 38.79C321.81 38.87 321.43 39.01 321.09 39.2C320.75 39.39 320.46 39.65 320.23 39.98C320 40.31 319.89 40.71 319.89 41.2C319.89 41.89 320.1 42.43 320.53 42.82C320.96 43.21 321.51 43.51 322.2 43.7C322.27 43.72 322.56 43.8 323.06 43.93C323.56 44.07 324.12 44.22 324.73 44.38C325.35 44.54 325.95 44.7 326.54 44.86C327.13 45.01 327.55 45.13 327.8 45.2C328.43 45.4 328.99 45.67 329.46 46.02C329.93 46.36 330.33 46.76 330.64 47.2C330.96 47.64 331.19 48.12 331.35 48.63C331.5 49.14 331.58 49.65 331.58 50.15C331.58 51.24 331.36 52.17 330.91 52.94C330.46 53.71 329.88 54.34 329.16 54.83C328.43 55.32 327.61 55.68 326.68 55.9C325.75 56.12 324.81 56.24 323.85 56.24C322.74 56.24 321.7 56.1 320.72 55.83C319.74 55.56 318.89 55.14 318.16 54.58C317.43 54.02 316.85 53.3 316.42 52.42C315.98 51.54 315.76 50.5 315.74 49.31H319.14V49.34Z" fill="black"/>
<path d="M340.55 56.19C339.43 56.19 338.42 56 337.54 55.63C336.66 55.26 335.92 54.75 335.31 54.09C334.7 53.43 334.24 52.66 333.92 51.75C333.6 50.84 333.44 49.85 333.44 48.76C333.44 47.67 333.6 46.7 333.92 45.79C334.24 44.88 334.7 44.1 335.31 43.45C335.92 42.8 336.66 42.28 337.54 41.91C338.42 41.54 339.42 41.35 340.55 41.35C341.68 41.35 342.68 41.54 343.56 41.91C344.44 42.28 345.18 42.79 345.79 43.45C346.4 44.11 346.86 44.88 347.18 45.79C347.5 46.7 347.66 47.69 347.66 48.76C347.66 49.83 347.5 50.85 347.18 51.75C346.86 52.66 346.4 53.44 345.79 54.09C345.18 54.74 344.44 55.26 343.56 55.63C342.68 56 341.68 56.19 340.55 56.19ZM340.55 53.74C341.24 53.74 341.84 53.59 342.34 53.3C342.85 53.01 343.26 52.63 343.59 52.16C343.92 51.69 344.16 51.16 344.31 50.57C344.46 49.98 344.54 49.38 344.54 48.76C344.54 48.14 344.46 47.56 344.31 46.96C344.16 46.36 343.92 45.83 343.59 45.37C343.26 44.91 342.85 44.53 342.34 44.24C341.83 43.95 341.23 43.8 340.55 43.8C339.87 43.8 339.26 43.95 338.75 44.24C338.24 44.53 337.83 44.91 337.5 45.37C337.17 45.83 336.93 46.36 336.78 46.96C336.63 47.56 336.55 48.16 336.55 48.76C336.55 49.36 336.63 49.98 336.78 50.57C336.93 51.16 337.17 51.69 337.5 52.16C337.83 52.63 338.24 53.01 338.75 53.3C339.26 53.59 339.86 53.74 340.55 53.74Z" fill="black"/>
<path d="M359.72 46.45C359.59 45.58 359.24 44.92 358.67 44.48C358.1 44.04 357.38 43.81 356.51 43.81C356.11 43.81 355.68 43.88 355.23 44.01C354.78 44.14 354.36 44.4 353.98 44.77C353.6 45.14 353.28 45.66 353.03 46.32C352.78 46.98 352.65 47.85 352.65 48.92C352.65 49.5 352.72 50.08 352.85 50.66C352.99 51.24 353.2 51.76 353.5 52.21C353.8 52.66 354.18 53.03 354.66 53.31C355.13 53.59 355.7 53.73 356.37 53.73C357.28 53.73 358.03 53.45 358.61 52.89C359.2 52.33 359.57 51.54 359.71 50.52H362.81C362.52 52.35 361.83 53.75 360.73 54.72C359.63 55.69 358.18 56.18 356.36 56.18C355.25 56.18 354.28 55.99 353.44 55.62C352.6 55.25 351.89 54.74 351.31 54.1C350.73 53.46 350.29 52.69 349.99 51.8C349.69 50.91 349.54 49.95 349.54 48.92C349.54 47.89 349.68 46.88 349.98 45.96C350.27 45.03 350.7 44.23 351.29 43.55C351.87 42.87 352.59 42.34 353.45 41.95C354.31 41.56 355.32 41.37 356.48 41.37C357.3 41.37 358.07 41.47 358.81 41.68C359.55 41.89 360.2 42.2 360.77 42.62C361.34 43.04 361.81 43.56 362.17 44.2C362.53 44.84 362.75 45.59 362.82 46.46H359.72V46.45Z" fill="black"/>
<path d="M365.44 36.39H368.54V39.33H365.44V36.39ZM365.44 41.75H368.54V55.81H365.44V41.75Z" fill="black"/>
<path d="M374.33 49.58C374.33 50.12 374.41 50.65 374.56 51.16C374.71 51.67 374.95 52.11 375.25 52.49C375.56 52.87 375.95 53.17 376.42 53.4C376.89 53.63 377.45 53.74 378.11 53.74C379.02 53.74 379.75 53.55 380.3 53.16C380.85 52.77 381.27 52.19 381.54 51.41H384.48C384.32 52.17 384.04 52.85 383.64 53.45C383.24 54.05 382.76 54.55 382.2 54.96C381.64 55.37 381.01 55.68 380.31 55.88C379.61 56.09 378.88 56.19 378.12 56.19C377.01 56.19 376.03 56.01 375.18 55.65C374.33 55.29 373.61 54.78 373.02 54.13C372.43 53.48 371.99 52.7 371.69 51.79C371.39 50.88 371.24 49.89 371.24 48.8C371.24 47.8 371.4 46.85 371.72 45.96C372.04 45.06 372.49 44.27 373.08 43.59C373.67 42.91 374.38 42.37 375.22 41.97C376.06 41.57 377 41.37 378.05 41.37C379.16 41.37 380.15 41.6 381.03 42.06C381.91 42.52 382.64 43.13 383.22 43.9C383.8 44.66 384.22 45.54 384.48 46.53C384.74 47.52 384.81 48.54 384.68 49.59H374.34L374.33 49.58ZM381.57 47.54C381.53 47.05 381.43 46.58 381.26 46.13C381.09 45.68 380.85 45.28 380.55 44.95C380.25 44.61 379.89 44.34 379.46 44.13C379.03 43.92 378.56 43.82 378.03 43.82C377.5 43.82 376.99 43.92 376.55 44.11C376.11 44.3 375.72 44.56 375.41 44.9C375.09 45.24 374.84 45.63 374.65 46.08C374.46 46.53 374.36 47.02 374.34 47.55H381.58L381.57 47.54Z" fill="black"/>
<path d="M385.62 41.75H387.96V37.53H391.06V41.75H393.86V44.06H391.06V51.57C391.06 51.9 391.07 52.18 391.1 52.41C391.13 52.65 391.19 52.85 391.29 53.01C391.39 53.17 391.54 53.3 391.74 53.38C391.94 53.46 392.21 53.5 392.56 53.5C392.78 53.5 393 53.5 393.21 53.49C393.43 53.49 393.65 53.45 393.86 53.39V55.78C393.52 55.82 393.18 55.85 392.85 55.89C392.52 55.93 392.19 55.94 391.84 55.94C391.02 55.94 390.37 55.86 389.87 55.71C389.37 55.56 388.98 55.33 388.7 55.03C388.42 54.73 388.23 54.35 388.13 53.9C388.03 53.45 387.97 52.93 387.95 52.35V44.05H385.61V41.74L385.62 41.75Z" fill="black"/>
<path d="M397.95 41.75L401.62 52.25H401.67L405.23 41.75H408.47L403 56.58C402.75 57.21 402.5 57.82 402.25 58.4C402 58.98 401.71 59.49 401.35 59.94C401 60.38 400.56 60.74 400.03 61C399.5 61.26 398.83 61.39 398.02 61.39C397.29 61.39 396.58 61.34 395.87 61.23V58.62C396.12 58.66 396.37 58.7 396.6 58.74C396.84 58.79 397.08 58.81 397.33 58.81C397.69 58.81 397.99 58.76 398.23 58.67C398.47 58.58 398.66 58.45 398.81 58.28C398.96 58.11 399.1 57.9 399.2 57.67C399.31 57.43 399.41 57.16 399.5 56.85L399.85 55.76L394.52 41.75H397.95Z" fill="black"/>
<path d="M316.82 69.03H320.22V76.76H329.06V69.03H332.46V88.45H329.06V79.69H320.22V88.45H316.82V69.03Z" fill="black"/>
<path d="M348.46 88.46H345.41V86.5H345.36C344.98 87.21 344.41 87.77 343.66 88.2C342.91 88.63 342.14 88.84 341.36 88.84C339.51 88.84 338.17 88.38 337.35 87.47C336.52 86.55 336.11 85.17 336.11 83.32V74.4H339.21V83.02C339.21 84.25 339.45 85.12 339.92 85.63C340.39 86.14 341.05 86.39 341.91 86.39C342.56 86.39 343.11 86.29 343.54 86.09C343.98 85.89 344.33 85.62 344.6 85.29C344.87 84.95 345.07 84.55 345.18 84.08C345.3 83.61 345.36 83.1 345.36 82.56V74.4H348.46V88.46Z" fill="black"/>
<path d="M351.81 69.03H354.91V76.21H354.96C355.18 75.87 355.44 75.56 355.75 75.29C356.06 75.02 356.4 74.79 356.77 74.6C357.14 74.41 357.53 74.26 357.94 74.16C358.35 74.06 358.75 74.01 359.15 74.01C360.26 74.01 361.22 74.21 362.05 74.59C362.88 74.97 363.56 75.51 364.1 76.19C364.64 76.87 365.05 77.66 365.32 78.57C365.59 79.48 365.73 80.45 365.73 81.48C365.73 82.42 365.61 83.34 365.36 84.23C365.11 85.12 364.74 85.9 364.24 86.58C363.74 87.26 363.11 87.8 362.35 88.21C361.59 88.62 360.69 88.82 359.66 88.82C359.19 88.82 358.71 88.79 358.23 88.72C357.75 88.65 357.29 88.53 356.86 88.35C356.43 88.17 356.03 87.93 355.68 87.64C355.33 87.35 355.03 86.97 354.8 86.5H354.75V88.43H351.81V69.01V69.03ZM362.64 81.44C362.64 80.81 362.56 80.19 362.39 79.59C362.22 78.99 361.98 78.46 361.66 78C361.34 77.54 360.93 77.17 360.44 76.88C359.95 76.6 359.39 76.46 358.75 76.46C357.44 76.46 356.46 76.91 355.8 77.82C355.14 78.73 354.81 79.93 354.81 81.44C354.81 82.15 354.9 82.81 355.07 83.41C355.24 84.02 355.5 84.54 355.85 84.97C356.19 85.41 356.61 85.75 357.09 86C357.57 86.25 358.13 86.38 358.76 86.38C359.47 86.38 360.07 86.23 360.56 85.94C361.05 85.65 361.45 85.27 361.77 84.81C362.09 84.35 362.31 83.82 362.45 83.23C362.59 82.64 362.65 82.04 362.65 81.42L362.64 81.44Z" fill="black"/>
<path d="M296.91 0H294.24V92.58H296.91V0Z" fill="#EE7F00"/>
</svg>
