<svg xmlns="http://www.w3.org/2000/svg" width="1024" height="1024" viewBox="0 0 1024 1024">
  <path fill="#ffffff" d="M 469.8 214.6 C 434.9 226.8 413.5 253.6 374.0 297.5 l -173.8 193.1 a 32.0 32.0 0 0 0 2.4 45.2 32.0 32.0 0 0 0 45.2 -2.4 L 256.0 524.3 v 122.1 c 0.0 53.8 -1.6 85.1 13.9 115.7 12.3 24.1 31.9 43.7 55.9 55.9 C 356.5 833.6 387.9 832.0 441.6 832.0 H 448.0 h 128.0 6.4 c 53.8 0.0 85.1 1.6 115.7 -13.9 24.1 -12.3 43.7 -31.9 55.9 -55.9 C 769.6 731.5 768.0 700.1 768.0 646.4 v -122.1 l 8.2 9.1 a 32.0 32.0 0 0 0 45.3 2.4 32.0 32.0 0 0 0 2.4 -45.3 L 649.9 297.4 C 610.4 253.5 589.0 226.8 554.1 214.6 c -27.3 -9.5 -57.0 -9.5 -84.2 0.0 z m 21.1 60.4 a 32.0 32.0 0 0 0 0.1 0.0 c 13.6 -4.8 28.4 -4.8 42.1 0.0 a 32.0 32.0 0 0 0 0.1 0.0 c 11.6 4.0 29.8 21.3 69.3 65.2 L 704.0 453.2 v 193.2 c 0.0 53.8 -1.7 76.2 -7.0 86.7 -6.2 12.1 -15.9 21.8 -27.9 27.9 C 661.7 764.8 634.0 765.1 608.0 765.9 V 608.0 a 32.0 32.0 0 0 0 -32.0 -32.0 h -128.0 a 32.0 32.0 0 0 0 -32.0 32.0 v 157.9 C 390.0 765.1 362.3 764.8 354.9 761.0 342.9 754.8 333.1 745.1 327.0 733.1 321.7 722.6 320.0 700.1 320.0 646.4 v -193.2 L 421.6 340.3 C 461.1 296.4 479.3 279.1 490.9 275.1 Z M 480.0 640.0 h 64.0 v 128.0 h -64.0 z"/>
</svg>
