<svg xmlns="http://www.w3.org/2000/svg" width="400" height="136" viewBox="0 0 400 136">
  <!-- Logo icon: scaled to fit ~96px tall, centered vertically -->
  <g transform="translate(4, 5) scale(5.25)">
    <path
      d="M14 21V15H10V21M19 9.778V16.2C19 17.88 19 18.72 18.673 19.362C18.385 19.927 17.927 20.385 17.362 20.673C16.72 21 15.88 21 14.2 21H9.8C8.12 21 7.28 21 6.638 20.673C6.074 20.385 5.615 19.927 5.327 19.362C5 18.72 5 17.88 5 16.2V9.778M21 12L15.567 5.964C14.331 4.591 13.713 3.905 12.986 3.652C12.347 3.429 11.651 3.429 11.012 3.652C10.284 3.905 9.667 4.592 8.431 5.965L3 12"
      stroke="#0D9488"
      stroke-width="2"
      stroke-linecap="round"
      stroke-linejoin="round"
      fill="none"
    />
  </g>
  <!-- Text: sized to fill remaining space proportionally -->
  <text x="130" y="68" font-family="'Inter', 'Helvetica Neue', Arial, sans-serif" font-size="48" font-weight="700" fill="#0D9488" letter-spacing="-1" dominant-baseline="central">OpenHospi</text>
</svg>
